<?xml version="1.0" encoding="UTF-8" standalone="no"?>
<!DOCTYPE svg PUBLIC "-//W3C//DTD SVG 1.1//EN"
 "http://www.w3.org/Graphics/SVG/1.1/DTD/svg11.dtd">
<!-- Generated by graphviz version 2.36.0 (20140111.2315)
 -->
<!-- Title: controllers_diagram Pages: 1 -->
<svg width="556pt" height="531pt"
 viewBox="0.00 0.00 556.00 531.00" xmlns="http://www.w3.org/2000/svg" xmlns:xlink="http://www.w3.org/1999/xlink">
<g id="graph0" class="graph" transform="scale(1 1) rotate(0) translate(4 527)">
<title>controllers_diagram</title>
<polygon fill="none" stroke="none" points="-4,4 -4,-527 552,-527 552,4 -4,4"/>
<!-- _diagram_info -->
<g id="node1" class="node"><title>_diagram_info</title>
<text text-anchor="start" x="8" y="-441.6" font-family="Times,serif" font-size="13.00">Controllers diagram</text>
<text text-anchor="start" x="8" y="-427.6" font-family="Times,serif" font-size="13.00">Date: Feb 15 2016 &#45; 14:40</text>
<text text-anchor="start" x="8" y="-413.6" font-family="Times,serif" font-size="13.00">Migration version: 20160125211208</text>
<text text-anchor="start" x="8" y="-399.6" font-family="Times,serif" font-size="13.00">Generated by RailRoady 1.4.2</text>
<text text-anchor="start" x="8" y="-385.6" font-family="Times,serif" font-size="13.00">http://railroady.prestonlee.com</text>
</g>
<!-- StaticPagesController -->
<g id="node2" class="node"><title>StaticPagesController</title>
<path fill="none" stroke="black" d="M372,-414.5C372,-414.5 536,-414.5 536,-414.5 542,-414.5 548,-420.5 548,-426.5 548,-426.5 548,-510.5 548,-510.5 548,-516.5 542,-522.5 536,-522.5 536,-522.5 372,-522.5 372,-522.5 366,-522.5 360,-516.5 360,-510.5 360,-510.5 360,-426.5 360,-426.5 360,-420.5 366,-414.5 372,-414.5"/>
<text text-anchor="middle" x="454" y="-507.3" font-family="Times,serif" font-size="14.00">StaticPagesController</text>
<polyline fill="none" stroke="black" points="360,-499.5 548,-499.5 "/>
<text text-anchor="start" x="368" y="-484.3" font-family="Times,serif" font-size="14.00">autocomplete_ingredient_name</text>
<text text-anchor="start" x="368" y="-469.3" font-family="Times,serif" font-size="14.00">home</text>
<polyline fill="none" stroke="black" points="360,-461.5 548,-461.5 "/>
<polyline fill="none" stroke="black" points="360,-437.5 548,-437.5 "/>
<text text-anchor="start" x="368" y="-422.3" font-family="Times,serif" font-size="14.00">_layout</text>
</g>
<!-- IngredientsController -->
<g id="node3" class="node"><title>IngredientsController</title>
<path fill="none" stroke="black" d="M102,-90.5C102,-90.5 211,-90.5 211,-90.5 217,-90.5 223,-96.5 223,-102.5 223,-102.5 223,-306.5 223,-306.5 223,-312.5 217,-318.5 211,-318.5 211,-318.5 102,-318.5 102,-318.5 96,-318.5 90,-312.5 90,-306.5 90,-306.5 90,-102.5 90,-102.5 90,-96.5 96,-90.5 102,-90.5"/>
<text text-anchor="middle" x="156.5" y="-303.3" font-family="Times,serif" font-size="14.00">IngredientsController</text>
<polyline fill="none" stroke="black" points="90,-295.5 223,-295.5 "/>
<text text-anchor="start" x="98" y="-280.3" font-family="Times,serif" font-size="14.00">create</text>
<text text-anchor="start" x="98" y="-265.3" font-family="Times,serif" font-size="14.00">destroy</text>
<text text-anchor="start" x="98" y="-250.3" font-family="Times,serif" font-size="14.00">edit</text>
<text text-anchor="start" x="98" y="-235.3" font-family="Times,serif" font-size="14.00">index</text>
<text text-anchor="start" x="98" y="-220.3" font-family="Times,serif" font-size="14.00">new</text>
<text text-anchor="start" x="98" y="-205.3" font-family="Times,serif" font-size="14.00">show</text>
<text text-anchor="start" x="98" y="-190.3" font-family="Times,serif" font-size="14.00">update</text>
<polyline fill="none" stroke="black" points="90,-182.5 223,-182.5 "/>
<polyline fill="none" stroke="black" points="90,-158.5 223,-158.5 "/>
<text text-anchor="start" x="98" y="-143.3" font-family="Times,serif" font-size="14.00">_layout</text>
<text text-anchor="start" x="98" y="-128.3" font-family="Times,serif" font-size="14.00">check_auth</text>
<text text-anchor="start" x="98" y="-113.3" font-family="Times,serif" font-size="14.00">ingredient_params</text>
<text text-anchor="start" x="98" y="-98.3" font-family="Times,serif" font-size="14.00">set_ingredient</text>
</g>
<!-- ApplicationController -->
<g id="node4" class="node"><title>ApplicationController</title>
<path fill="none" stroke="black" d="M264,-0.5C264,-0.5 376,-0.5 376,-0.5 382,-0.5 388,-6.5 388,-12.5 388,-12.5 388,-82.5 388,-82.5 388,-88.5 382,-94.5 376,-94.5 376,-94.5 264,-94.5 264,-94.5 258,-94.5 252,-88.5 252,-82.5 252,-82.5 252,-12.5 252,-12.5 252,-6.5 258,-0.5 264,-0.5"/>
<text text-anchor="middle" x="320" y="-79.3" font-family="Times,serif" font-size="14.00">ApplicationController</text>
<polyline fill="none" stroke="black" points="252,-71.5 388,-71.5 "/>
<polyline fill="none" stroke="black" points="252,-47.5 388,-47.5 "/>
<polyline fill="none" stroke="black" points="252,-23.5 388,-23.5 "/>
<text text-anchor="start" x="260" y="-8.3" font-family="Times,serif" font-size="14.00">_layout</text>
</g>
<!-- RecipesController -->
<g id="node5" class="node"><title>RecipesController</title>
<path fill="none" stroke="black" d="M264,-126.5C264,-126.5 355,-126.5 355,-126.5 361,-126.5 367,-132.5 367,-138.5 367,-138.5 367,-357.5 367,-357.5 367,-363.5 361,-369.5 355,-369.5 355,-369.5 264,-369.5 264,-369.5 258,-369.5 252,-363.5 252,-357.5 252,-357.5 252,-138.5 252,-138.5 252,-132.5 258,-126.5 264,-126.5"/>
<text text-anchor="middle" x="309.5" y="-354.3" font-family="Times,serif" font-size="14.00">RecipesController</text>
<polyline fill="none" stroke="black" points="252,-346.5 367,-346.5 "/>
<text text-anchor="start" x="260" y="-331.3" font-family="Times,serif" font-size="14.00">create</text>
<text text-anchor="start" x="260" y="-316.3" font-family="Times,serif" font-size="14.00">destroy</text>
<text text-anchor="start" x="260" y="-301.3" font-family="Times,serif" font-size="14.00">edit</text>
<text text-anchor="start" x="260" y="-286.3" font-family="Times,serif" font-size="14.00">index</text>
<text text-anchor="start" x="260" y="-271.3" font-family="Times,serif" font-size="14.00">new</text>
<text text-anchor="start" x="260" y="-256.3" font-family="Times,serif" font-size="14.00">search</text>
<text text-anchor="start" x="260" y="-241.3" font-family="Times,serif" font-size="14.00">show</text>
<text text-anchor="start" x="260" y="-226.3" font-family="Times,serif" font-size="14.00">update</text>
<polyline fill="none" stroke="black" points="252,-218.5 367,-218.5 "/>
<polyline fill="none" stroke="black" points="252,-194.5 367,-194.5 "/>
<text text-anchor="start" x="260" y="-179.3" font-family="Times,serif" font-size="14.00">_layout</text>
<text text-anchor="start" x="260" y="-164.3" font-family="Times,serif" font-size="14.00">check_auth</text>
<text text-anchor="start" x="260" y="-149.3" font-family="Times,serif" font-size="14.00">recipe_params</text>
<text text-anchor="start" x="260" y="-134.3" font-family="Times,serif" font-size="14.00">set_recipe</text>
</g>
</g>
</svg>
