<?xml version="1.0" encoding="UTF-8" standalone="no"?>
<!DOCTYPE svg PUBLIC "-//W3C//DTD SVG 1.1//EN"
 "http://www.w3.org/Graphics/SVG/1.1/DTD/svg11.dtd">
<!-- Generated by graphviz version 2.36.0 (20140111.2315)
 -->
<!-- Title: models_diagram Pages: 1 -->
<svg width="406pt" height="230pt"
 viewBox="0.00 0.00 406.00 230.00" xmlns="http://www.w3.org/2000/svg" xmlns:xlink="http://www.w3.org/1999/xlink">
<g id="graph0" class="graph" transform="scale(1 1) rotate(0) translate(4 226)">
<title>models_diagram</title>
<polygon fill="none" stroke="none" points="-4,4 -4,-226 402,-226 402,4 -4,4"/>
<!-- _diagram_info -->
<g id="node1" class="node"><title>_diagram_info</title>
<text text-anchor="start" x="8" y="-207.6" font-family="Times,serif" font-size="13.00">Models diagram</text>
<text text-anchor="start" x="8" y="-193.6" font-family="Times,serif" font-size="13.00">Date: Feb 15 2016 &#45; 14:40</text>
<text text-anchor="start" x="8" y="-179.6" font-family="Times,serif" font-size="13.00">Migration version: 20160125211208</text>
<text text-anchor="start" x="8" y="-165.6" font-family="Times,serif" font-size="13.00">Generated by RailRoady 1.4.2</text>
<text text-anchor="start" x="8" y="-151.6" font-family="Times,serif" font-size="13.00">http://railroady.prestonlee.com</text>
</g>
<!-- Ingredient -->
<g id="node2" class="node"><title>Ingredient</title>
<ellipse fill="none" stroke="black" cx="279" cy="-183" rx="46.1964" ry="18"/>
<text text-anchor="middle" x="279" y="-179.3" font-family="Times,serif" font-size="14.00">Ingredient</text>
</g>
<!-- Recipe -->
<g id="node3" class="node"><title>Recipe</title>
<ellipse fill="none" stroke="black" cx="247" cy="-90" rx="35.1455" ry="18"/>
<text text-anchor="middle" x="247" y="-86.3" font-family="Times,serif" font-size="14.00">Recipe</text>
</g>
<!-- Ingredient&#45;&gt;Recipe -->
<g id="edge2" class="edge"><title>Ingredient&#45;&gt;Recipe</title>
<path fill="none" stroke="#d898db" d="M269.655,-155.426C265.496,-143.597 260.605,-129.69 256.435,-117.831"/>
<polygon fill="#d898db" stroke="#d898db" points="269.664,-155.45 268.736,-166.376 271.322,-160.167 272.981,-164.884 272.981,-164.884 272.981,-164.884 271.322,-160.167 277.226,-163.391 269.664,-155.45 269.664,-155.45"/>
<polygon fill="#d898db" stroke="#d898db" points="256.309,-117.473 257.237,-106.547 254.651,-112.757 252.992,-108.04 252.992,-108.04 252.992,-108.04 254.651,-112.757 248.747,-109.532 256.309,-117.473 256.309,-117.473"/>
</g>
<!-- Link -->
<g id="node4" class="node"><title>Link</title>
<ellipse fill="none" stroke="black" cx="278" cy="-18" rx="26.949" ry="18"/>
<text text-anchor="middle" x="278" y="-14.3" font-family="Times,serif" font-size="14.00">Link</text>
</g>
<!-- Ingredient&#45;&gt;Link -->
<g id="edge1" class="edge"><title>Ingredient&#45;&gt;Link</title>
<path fill="none" stroke="#077e33" d="M285.021,-156.867C289.583,-134.559 294.515,-101.087 291,-72 289.961,-63.4026 288.007,-54.1878 285.923,-45.8926"/>
<ellipse fill="none" stroke="#077e33" cx="284.149" cy="-160.927" rx="4.00001" ry="4.00001"/>
<polygon fill="#077e33" stroke="#077e33" points="285.859,-45.6528 287.621,-34.8294 284.566,-40.8228 283.274,-35.9927 283.274,-35.9927 283.274,-35.9927 284.566,-40.8228 278.927,-37.156 285.859,-45.6528 285.859,-45.6528"/>
</g>
<!-- Recipe&#45;&gt;Link -->
<g id="edge3" class="edge"><title>Recipe&#45;&gt;Link</title>
<path fill="none" stroke="#426178" d="M257.755,-64.7144C260.529,-58.4507 263.527,-51.6804 266.345,-45.3185"/>
<ellipse fill="none" stroke="#426178" cx="256.124" cy="-68.3976" rx="4.00002" ry="4.00002"/>
<polygon fill="#426178" stroke="#426178" points="266.516,-44.9325 274.679,-37.6112 268.54,-40.3608 270.565,-35.789 270.565,-35.789 270.565,-35.789 268.54,-40.3608 266.45,-33.9668 266.516,-44.9325 266.516,-44.9325"/>
</g>
<!-- User -->
<g id="node5" class="node"><title>User</title>
<ellipse fill="none" stroke="black" cx="371" cy="-183" rx="26.949" ry="18"/>
<text text-anchor="middle" x="371" y="-179.3" font-family="Times,serif" font-size="14.00">User</text>
</g>
</g>
</svg>
