<?xml version="1.0" encoding="UTF-8" standalone="no"?>
<!DOCTYPE svg PUBLIC "-//W3C//DTD SVG 1.1//EN"
 "http://www.w3.org/Graphics/SVG/1.1/DTD/svg11.dtd">
<!-- Generated by graphviz version 2.36.0 (20140111.2315)
 -->
<!-- Title: models_diagram Pages: 1 -->
<svg width="604pt" height="522pt"
 viewBox="0.00 0.00 604.00 522.00" xmlns="http://www.w3.org/2000/svg" xmlns:xlink="http://www.w3.org/1999/xlink">
<g id="graph0" class="graph" transform="scale(1 1) rotate(0) translate(4 518)">
<title>models_diagram</title>
<polygon fill="none" stroke="none" points="-4,4 -4,-518 600,-518 600,4 -4,4"/>
<!-- _diagram_info -->
<g id="node1" class="node"><title>_diagram_info</title>
<text text-anchor="start" x="8" y="-417.6" font-family="Times,serif" font-size="13.00">Models diagram</text>
<text text-anchor="start" x="8" y="-403.6" font-family="Times,serif" font-size="13.00">Date: Feb 15 2016 &#45; 14:40</text>
<text text-anchor="start" x="8" y="-389.6" font-family="Times,serif" font-size="13.00">Migration version: 20160125211208</text>
<text text-anchor="start" x="8" y="-375.6" font-family="Times,serif" font-size="13.00">Generated by RailRoady 1.4.2</text>
<text text-anchor="start" x="8" y="-361.6" font-family="Times,serif" font-size="13.00">http://railroady.prestonlee.com</text>
</g>
<!-- Ingredient -->
<g id="node2" class="node"><title>Ingredient</title>
<path fill="none" stroke="black" d="M244.5,-347.5C244.5,-347.5 351.5,-347.5 351.5,-347.5 357.5,-347.5 363.5,-353.5 363.5,-359.5 363.5,-359.5 363.5,-426.5 363.5,-426.5 363.5,-432.5 357.5,-438.5 351.5,-438.5 351.5,-438.5 244.5,-438.5 244.5,-438.5 238.5,-438.5 232.5,-432.5 232.5,-426.5 232.5,-426.5 232.5,-359.5 232.5,-359.5 232.5,-353.5 238.5,-347.5 244.5,-347.5"/>
<text text-anchor="middle" x="298" y="-423.3" font-family="Times,serif" font-size="14.00">Ingredient</text>
<polyline fill="none" stroke="black" points="232.5,-415.5 363.5,-415.5 "/>
<text text-anchor="start" x="240.5" y="-400.3" font-family="Times,serif" font-size="14.00">id :int(11)</text>
<text text-anchor="start" x="240.5" y="-385.3" font-family="Times,serif" font-size="14.00">name :varchar(255)</text>
<text text-anchor="start" x="240.5" y="-370.3" font-family="Times,serif" font-size="14.00">created_at :datetime</text>
<text text-anchor="start" x="240.5" y="-355.3" font-family="Times,serif" font-size="14.00">updated_at :datetime</text>
</g>
<!-- Recipe -->
<g id="node3" class="node"><title>Recipe</title>
<path fill="none" stroke="black" d="M197.5,-144.5C197.5,-144.5 304.5,-144.5 304.5,-144.5 310.5,-144.5 316.5,-150.5 316.5,-156.5 316.5,-156.5 316.5,-223.5 316.5,-223.5 316.5,-229.5 310.5,-235.5 304.5,-235.5 304.5,-235.5 197.5,-235.5 197.5,-235.5 191.5,-235.5 185.5,-229.5 185.5,-223.5 185.5,-223.5 185.5,-156.5 185.5,-156.5 185.5,-150.5 191.5,-144.5 197.5,-144.5"/>
<text text-anchor="middle" x="251" y="-220.3" font-family="Times,serif" font-size="14.00">Recipe</text>
<polyline fill="none" stroke="black" points="185.5,-212.5 316.5,-212.5 "/>
<text text-anchor="start" x="193.5" y="-197.3" font-family="Times,serif" font-size="14.00">id :int(11)</text>
<text text-anchor="start" x="193.5" y="-182.3" font-family="Times,serif" font-size="14.00">name :varchar(255)</text>
<text text-anchor="start" x="193.5" y="-167.3" font-family="Times,serif" font-size="14.00">created_at :datetime</text>
<text text-anchor="start" x="193.5" y="-152.3" font-family="Times,serif" font-size="14.00">updated_at :datetime</text>
</g>
<!-- Ingredient&#45;&gt;Recipe -->
<g id="edge2" class="edge"><title>Ingredient&#45;&gt;Recipe</title>
<path fill="none" stroke="#22bd9d" d="M285.221,-337.348C278.559,-308.858 270.434,-274.111 263.773,-245.625"/>
<polygon fill="#22bd9d" stroke="#22bd9d" points="285.292,-337.654 283.187,-348.416 286.431,-342.523 287.569,-347.392 287.569,-347.392 287.569,-347.392 286.431,-342.523 291.951,-346.367 285.292,-337.654 285.292,-337.654"/>
<polygon fill="#22bd9d" stroke="#22bd9d" points="263.76,-245.568 265.865,-234.806 262.621,-240.699 261.483,-235.831 261.483,-235.831 261.483,-235.831 262.621,-240.699 257.101,-236.855 263.76,-245.568 263.76,-245.568"/>
</g>
<!-- Link -->
<g id="node4" class="node"><title>Link</title>
<path fill="none" stroke="black" d="M243.5,-1C243.5,-1 352.5,-1 352.5,-1 358.5,-1 364.5,-7 364.5,-13 364.5,-13 364.5,-95 364.5,-95 364.5,-101 358.5,-107 352.5,-107 352.5,-107 243.5,-107 243.5,-107 237.5,-107 231.5,-101 231.5,-95 231.5,-95 231.5,-13 231.5,-13 231.5,-7 237.5,-1 243.5,-1"/>
<text text-anchor="middle" x="298" y="-91.8" font-family="Times,serif" font-size="14.00">Link</text>
<polyline fill="none" stroke="black" points="231.5,-84 364.5,-84 "/>
<text text-anchor="start" x="239.5" y="-68.8" font-family="Times,serif" font-size="14.00">id :int(11)</text>
<text text-anchor="start" x="239.5" y="-53.8" font-family="Times,serif" font-size="14.00">recipe_id :int(11)</text>
<text text-anchor="start" x="239.5" y="-38.8" font-family="Times,serif" font-size="14.00">ingredient_id :int(11)</text>
<text text-anchor="start" x="239.5" y="-23.8" font-family="Times,serif" font-size="14.00">created_at :datetime</text>
<text text-anchor="start" x="239.5" y="-8.8" font-family="Times,serif" font-size="14.00">updated_at :datetime</text>
</g>
<!-- Ingredient&#45;&gt;Link -->
<g id="edge1" class="edge"><title>Ingredient&#45;&gt;Link</title>
<path fill="none" stroke="#352acb" d="M311.548,-339.232C322.622,-288.921 334.954,-211.098 325,-144 323.678,-135.086 321.648,-125.828 319.284,-116.8"/>
<ellipse fill="none" stroke="#352acb" cx="310.663" cy="-343.162" rx="4.00001" ry="4.00001"/>
<polygon fill="#352acb" stroke="#352acb" points="319.272,-116.759 320.94,-105.921 317.938,-111.94 316.603,-107.122 316.603,-107.122 316.603,-107.122 317.938,-111.94 312.266,-108.323 319.272,-116.759 319.272,-116.759"/>
</g>
<!-- Recipe&#45;&gt;Link -->
<g id="edge3" class="edge"><title>Recipe&#45;&gt;Link</title>
<path fill="none" stroke="#f62b3e" d="M269.33,-136.739C271.608,-130.247 273.953,-123.56 276.275,-116.939"/>
<ellipse fill="none" stroke="#f62b3e" cx="267.974" cy="-140.605" rx="4.00001" ry="4.00001"/>
<polygon fill="#f62b3e" stroke="#f62b3e" points="276.34,-116.754 283.896,-108.807 277.995,-112.036 279.65,-107.318 279.65,-107.318 279.65,-107.318 277.995,-112.036 275.403,-105.828 276.34,-116.754 276.34,-116.754"/>
</g>
<!-- User -->
<g id="node5" class="node"><title>User</title>
<path fill="none" stroke="black" d="M394,-272.5C394,-272.5 584,-272.5 584,-272.5 590,-272.5 596,-278.5 596,-284.5 596,-284.5 596,-501.5 596,-501.5 596,-507.5 590,-513.5 584,-513.5 584,-513.5 394,-513.5 394,-513.5 388,-513.5 382,-507.5 382,-501.5 382,-501.5 382,-284.5 382,-284.5 382,-278.5 388,-272.5 394,-272.5"/>
<text text-anchor="middle" x="489" y="-498.3" font-family="Times,serif" font-size="14.00">User</text>
<polyline fill="none" stroke="black" points="382,-490.5 596,-490.5 "/>
<text text-anchor="start" x="390" y="-475.3" font-family="Times,serif" font-size="14.00">id :int(11)</text>
<text text-anchor="start" x="390" y="-460.3" font-family="Times,serif" font-size="14.00">email :varchar(255)</text>
<text text-anchor="start" x="390" y="-445.3" font-family="Times,serif" font-size="14.00">encrypted_password :varchar(255)</text>
<text text-anchor="start" x="390" y="-430.3" font-family="Times,serif" font-size="14.00">reset_password_token :varchar(255)</text>
<text text-anchor="start" x="390" y="-415.3" font-family="Times,serif" font-size="14.00">reset_password_sent_at :datetime</text>
<text text-anchor="start" x="390" y="-400.3" font-family="Times,serif" font-size="14.00">remember_created_at :datetime</text>
<text text-anchor="start" x="390" y="-385.3" font-family="Times,serif" font-size="14.00">sign_in_count :int(11)</text>
<text text-anchor="start" x="390" y="-370.3" font-family="Times,serif" font-size="14.00">current_sign_in_at :datetime</text>
<text text-anchor="start" x="390" y="-355.3" font-family="Times,serif" font-size="14.00">last_sign_in_at :datetime</text>
<text text-anchor="start" x="390" y="-340.3" font-family="Times,serif" font-size="14.00">current_sign_in_ip :varchar(255)</text>
<text text-anchor="start" x="390" y="-325.3" font-family="Times,serif" font-size="14.00">last_sign_in_ip :varchar(255)</text>
<text text-anchor="start" x="390" y="-310.3" font-family="Times,serif" font-size="14.00">created_at :datetime</text>
<text text-anchor="start" x="390" y="-295.3" font-family="Times,serif" font-size="14.00">updated_at :datetime</text>
<text text-anchor="start" x="390" y="-280.3" font-family="Times,serif" font-size="14.00">admin :tinyint(1)</text>
</g>
</g>
</svg>
